<svg width="30" height="30" viewBox="0 0 30 30" fill="none"
  xmlns="http://www.w3.org/2000/svg">
  <path fill-rule="evenodd" clip-rule="evenodd" d="M17.5369 6.44082C17.742 5.98262 17.9687 5.5332 18.2166 5.09257C18.2667 5.00438 18.3137 4.98771 18.4231 5.00742C20.1808 5.36398 21.9259 5.89765 23.6691 6.54568C23.7677 6.58082 23.8907 6.65826 23.9467 6.75094C26.6754 10.836 28.4382 15.5431 27.9049 21.4418C27.8908 21.6631 27.8473 21.7006 27.6891 21.8137C25.6915 23.2141 23.5727 24.3281 21.254 24.9695C21.0176 25.0401 20.9415 24.9838 20.8449 24.8452C20.3769 24.1667 19.9623 23.4705 19.555 22.7717C20.3675 22.4609 21.1377 22.1149 21.8181 21.6942L21.2761 21.2394C19.7967 22.1403 17.3139 22.7316 14.5 22.7316C11.6861 22.7316 9.2033 22.1403 7.72389 21.2394L7.18195 21.6942C7.86231 22.1151 8.63255 22.4609 9.445 22.7717C9.03769 23.4703 8.62313 24.1666 8.15512 24.8452C8.05854 24.9838 7.98244 25.0401 7.74599 24.9695C5.42731 24.3281 3.30848 23.2141 1.31087 21.8137C1.15269 21.7006 1.10921 21.6631 1.09508 21.4418C0.561837 15.5431 2.32463 10.8362 5.05334 6.75094C5.10932 6.65826 5.23235 6.58082 5.33092 6.54568C7.07414 5.89765 8.81899 5.36398 10.5769 5.00742C10.6863 4.98788 10.7333 5.00456 10.7834 5.09257C11.0313 5.5332 11.258 5.98244 11.4631 6.44082C12.3627 6.28575 13.398 6.1972 14.5 6.1972C15.602 6.1972 16.6375 6.28575 17.5369 6.44082ZM10.0002 13.4201C8.67386 13.4201 7.59886 14.5916 7.59886 16.0364C7.59886 17.4813 8.67404 18.6528 10.0002 18.6528C11.3263 18.6528 12.4015 17.4813 12.4015 16.0364C12.4015 14.5916 11.3263 13.4201 10.0002 13.4201ZM18.9998 13.4201C17.6735 13.4201 16.5985 14.5916 16.5985 16.0364C16.5985 17.4813 17.6737 18.6528 18.9998 18.6528C20.326 18.6528 21.4011 17.4813 21.4011 16.0364C21.4011 14.5916 20.326 13.4201 18.9998 13.4201Z" fill="white"/>
</svg>
